<?xml version="1.0" encoding="utf-8"?>
<!-- Generator: Adobe Illustrator 14.0.0, SVG Export Plug-In . SVG Version: 6.00 Build 43363)  -->
<!DOCTYPE svg PUBLIC "-//W3C//DTD SVG 1.1//EN" "http://www.w3.org/Graphics/SVG/1.1/DTD/svg11.dtd">
<svg version="1.1" xmlns="http://www.w3.org/2000/svg" xmlns:xlink="http://www.w3.org/1999/xlink" x="0px" y="0px"
	 width="278.917px" height="165.506px" viewBox="0 0 278.917 165.506" enable-background="new 0 0 278.917 165.506"
	 xml:space="preserve">
<g id="CataChat">
	<g id="Logo_1_">
		<g id="Logo">
			<g>
				<path fill="#683792" d="M149.118,163.827c1.856-14.449-1.024-26.939-7.715-37.114c-8.645-13.152-17.926-25.481-26.993-38.075
					c-6.915-9.605-13.995-19.008-18.611-31.285c-4.435-11.792-4.754-23.823-0.741-35.993c0.232-0.707,0.489-1.397,0.748-2.086
					c0.127-0.34,0.282-0.658,0.688-1.589c0.389,9.396,4.204,15.426,7.773,21.662c9.749,17.049,22.134,30.211,33.432,44.977
					c8.315,10.869,15.995,22.412,20.016,37.787C161.809,137.776,158.703,153.104,149.118,163.827z"/>
				<path fill="#683792" d="M154.019,25.355c-9.396-10.026-20.937-11.192-33.752-9.703c-6.73,0.781-13.155,3.966-18.728,8.645
					c-2.567-4.017-2.012-8.359,1.689-11.946c4.473-4.337,8.904-6.622,14.688-7.977c10.185-2.386,17.989-2.023,25.669,3.086
					C149.828,11.611,152.872,17.853,154.019,25.355z"/>
			</g>
			<g>
				<path fill="#683792" d="M167.908,47.25c-1.013-1.399-2.413-2.653-2.977-4.213c-0.936-2.591-2.038-5.428-1.83-8.064
					c0.587-7.47-1.55-14.319-7.569-20.346c3.054,9.494,1.434,17.854-2.624,25.762c-3.097,6.034-6.785,11.761-10.115,17.679
					c-2.325,4.132-4.835,8.199-6.86,12.47l7.364,7.364c2.863,0.768,5.639,1.546,8.466,1.997c2.448,0.391,5.039,0.132,7.541-0.098
					c2.909-0.266,4.255-1.917,3.785-4.957c-0.461-2.981-0.956-5.637,0.932-8.825c0.966-1.631,3.604-5.34,0.62-8.343
					c-0.132-0.135,0.873-1.88,1.661-2.371C170.837,52.486,171.062,51.603,167.908,47.25z"/>
			</g>
		</g>
	</g>
</g>
<g id="harabara_font">
	<path fill="#683792" stroke="#683792" stroke-width="2" stroke-miterlimit="10" d="M42.093,118.458
		c-0.41,4.901-2.248,8.743-5.515,11.521c-3.352,2.696-7.763,4.043-13.236,4.043c-6.372,0-11.235-1.919-14.584-5.76
		c-3.351-3.677-5.025-9.108-5.025-16.3c0-7.354,1.716-12.869,5.148-16.545c3.511-3.841,8.579-5.761,15.197-5.761
		c5.392,0,9.682,1.348,12.868,4.044c3.021,2.617,4.736,6.293,5.146,11.03h-5.269c-1.962,0-3.352-0.857-4.167-2.573
		c-0.572-1.06-1.268-2.001-2.084-2.819c-1.636-1.226-3.8-1.838-6.495-1.838c-3.76,0-6.661,1.226-8.702,3.676
		c-1.961,2.452-2.942,6.049-2.942,10.786c0,4.576,0.981,8.088,2.942,10.54c1.879,2.533,4.697,3.8,8.456,3.8
		c2.614,0,4.78-0.654,6.496-1.962c1.551-1.226,2.653-3.186,3.31-5.882H42.093z"/>
	<path fill="#683792" stroke="#683792" stroke-width="2" stroke-miterlimit="10" d="M66.608,131.693
		c-1.716,0.901-3.535,1.45-5.454,1.655c-1.92,0.202-3.615,0.307-5.085,0.307c-2.942,0-5.516-0.797-7.723-2.391
		c-2.206-1.593-3.309-4.229-3.309-7.905c0-3.432,1-5.882,3.003-7.354c2.001-1.47,4.554-2.45,7.66-2.941
		c0.407,0,0.897-0.062,1.47-0.184c0.572-0.123,1.227-0.224,1.962-0.307c3.595-0.49,5.393-1.551,5.393-3.186
		c0-1.226-0.635-2.022-1.899-2.391c-1.268-0.367-2.433-0.551-3.493-0.551c-1.146,0-2.167,0.165-3.063,0.49
		c-0.9,0.326-1.554,0.939-1.962,1.839h-8.212c0.326-2.533,1.472-4.615,3.432-6.252c2.206-1.879,5.353-2.818,9.438-2.818
		c4.575,0,8.007,0.777,10.296,2.328c2.367,1.637,3.554,3.921,3.554,6.863v11.152c0,3.27-0.594,5.822-1.778,7.66
		C69.652,129.55,68.242,130.878,66.608,131.693 M64.647,116.619c-1.146,0.572-2.738,1.104-4.779,1.593l-2.819,0.614
		c-1.471,0.409-2.533,0.939-3.187,1.593c-0.573,0.9-0.857,1.799-0.857,2.695c0,1.226,0.367,2.207,1.103,2.941
		c0.736,0.655,1.797,0.98,3.186,0.98c2.288,0,4.086-0.652,5.394-1.96c1.305-1.307,1.961-3.104,1.961-5.393V116.619z"/>
	<path fill="#683792" stroke="#683792" stroke-width="2" stroke-miterlimit="10" d="M90.143,133.042
		c-2.696,0.163-5.618,0.123-8.763-0.122c-3.146-0.245-4.718-2.246-4.718-6.006V90.882h4.411c1.061,0,2.001,0.409,2.819,1.227
		c0.815,0.816,1.227,1.797,1.227,2.94v5.516h5.023v1.715c0,1.227-0.409,2.228-1.226,3.003c-0.817,0.777-1.799,1.165-2.941,1.165
		h-0.856v18.138c0,1.391,0.814,2.084,2.449,2.084h2.574V133.042z"/>
	<path fill="#683792" stroke="#683792" stroke-width="2" stroke-miterlimit="10" d="M114.936,131.693
		c-1.716,0.901-3.535,1.45-5.453,1.655c-1.922,0.202-3.616,0.307-5.087,0.307c-2.941,0-5.515-0.797-7.722-2.391
		c-2.205-1.593-3.309-4.229-3.309-7.905c0-3.432,1-5.882,3.002-7.354c2.002-1.47,4.554-2.45,7.66-2.941
		c0.408,0,0.899-0.062,1.472-0.184c0.571-0.123,1.226-0.224,1.961-0.307c3.595-0.49,5.393-1.551,5.393-3.186
		c0-1.226-0.635-2.022-1.9-2.391c-1.267-0.367-2.432-0.551-3.492-0.551c-1.146,0-2.166,0.165-3.064,0.49
		c-0.899,0.326-1.553,0.939-1.961,1.839h-8.211c0.325-2.533,1.471-4.615,3.431-6.252c2.206-1.879,5.351-2.818,9.438-2.818
		c4.575,0,8.007,0.777,10.295,2.328c2.368,1.637,3.554,3.921,3.554,6.863v11.152c0,3.27-0.592,5.822-1.777,7.66
		C117.979,129.55,116.569,130.878,114.936,131.693 M112.975,116.619c-1.146,0.572-2.738,1.104-4.78,1.593l-2.818,0.614
		c-1.47,0.409-2.533,0.939-3.187,1.593c-0.572,0.9-0.858,1.799-0.858,2.695c0,1.226,0.369,2.207,1.104,2.941
		c0.736,0.655,1.796,0.98,3.188,0.98c2.285,0,4.084-0.652,5.392-1.96c1.306-1.307,1.961-3.104,1.961-5.393V116.619z"/>
	<path fill="none" stroke="#FFFFFF" stroke-width="1.5" stroke-miterlimit="10" d="M199.536,118.381
		c-0.41,4.902-2.247,8.743-5.515,11.521c-3.352,2.696-7.763,4.044-13.237,4.044c-6.371,0-11.235-1.919-14.584-5.761
		c-3.352-3.676-5.025-9.108-5.025-16.3c0-7.354,1.716-12.868,5.147-16.545c3.513-3.84,8.58-5.761,15.198-5.761
		c5.392,0,9.682,1.348,12.867,4.044c3.023,2.616,4.738,6.293,5.148,11.032h-5.271c-1.961,0-3.351-0.858-4.167-2.575
		c-0.571-1.06-1.267-2.001-2.084-2.819c-1.634-1.225-3.798-1.838-6.494-1.838c-3.76,0-6.66,1.226-8.702,3.677
		c-1.961,2.451-2.941,6.048-2.941,10.785c0,4.577,0.98,8.09,2.941,10.54c1.879,2.532,4.697,3.8,8.456,3.8
		c2.614,0,4.78-0.654,6.496-1.962c1.552-1.225,2.654-3.187,3.309-5.882H199.536z"/>
	<path fill="none" stroke="#FFFFFF" stroke-width="1.5" stroke-miterlimit="10" d="M221.842,109.557
		c-1.226-1.716-2.9-2.574-5.025-2.574c-2.287,0-4.043,0.817-5.27,2.452c-1.226,1.635-1.838,3.881-1.838,6.74v16.79h-8.334v-42.16
		h4.167c1.144,0,2.124,0.41,2.94,1.226c0.816,0.818,1.227,1.798,1.227,2.941v9.683c1.471-2.452,3.554-4.002,6.25-4.657
		c2.697-0.653,5.271-0.49,7.722,0.49c2.287,0.98,4.207,2.532,5.76,4.657c1.552,2.125,2.329,5.067,2.329,8.823v18.997h-8.211v-16.912
		c0-1.226-0.104-2.35-0.307-3.371C223.047,111.661,222.578,110.62,221.842,109.557"/>
	<path fill="none" stroke="#FFFFFF" stroke-width="1.5" stroke-miterlimit="10" d="M254.075,131.617
		c-1.716,0.899-3.537,1.45-5.453,1.654c-1.922,0.202-3.615,0.308-5.088,0.308c-2.94,0-5.514-0.799-7.721-2.392
		c-2.205-1.593-3.309-4.228-3.309-7.904c0-3.433,1-5.883,3.003-7.354c2.002-1.472,4.554-2.451,7.66-2.941
		c0.406,0,0.897-0.062,1.472-0.184c0.569-0.123,1.225-0.224,1.959-0.307c3.594-0.491,5.394-1.552,5.394-3.187
		c0-1.226-0.636-2.022-1.9-2.392c-1.269-0.366-2.433-0.55-3.493-0.55c-1.145,0-2.165,0.164-3.064,0.49
		c-0.898,0.327-1.552,0.939-1.959,1.839h-8.213c0.326-2.532,1.472-4.615,3.433-6.251c2.205-1.878,5.35-2.819,9.437-2.819
		c4.574,0,8.007,0.778,10.295,2.328c2.368,1.636,3.554,3.922,3.554,6.864v11.153c0,3.268-0.593,5.82-1.776,7.659
		C257.119,129.473,255.708,130.802,254.075,131.617 M252.114,116.542c-1.146,0.572-2.738,1.103-4.781,1.592l-2.817,0.615
		c-1.471,0.409-2.533,0.939-3.188,1.593c-0.571,0.899-0.857,1.799-0.857,2.696c0,1.225,0.368,2.206,1.104,2.94
		c0.734,0.656,1.795,0.981,3.186,0.981c2.286,0,4.085-0.653,5.393-1.962c1.307-1.304,1.961-3.104,1.961-5.392V116.542z"/>
	<path fill="none" stroke="#FFFFFF" stroke-width="1.5" stroke-miterlimit="10" d="M275.768,132.965
		c-2.696,0.163-5.618,0.123-8.763-0.123c-3.146-0.245-4.719-2.245-4.719-6.004V90.805h4.413c1.06,0,2.001,0.41,2.817,1.226
		c0.815,0.818,1.227,1.798,1.227,2.941v5.516h5.024v1.715c0,1.226-0.409,2.228-1.227,3.003c-0.816,0.778-1.797,1.165-2.94,1.165
		h-0.857v18.139c0,1.391,0.814,2.083,2.45,2.083h2.574V132.965z"/>
	<text transform="matrix(1 0 0 1 268.877 89.3936)" fill="#FFFFFF" font-family="'MyriadPro-Regular'" font-size="4.1431">TM</text>
</g>
</svg>
