<?xml version="1.0" encoding="utf-8"?>
<!-- Generator: Adobe Illustrator 14.0.0, SVG Export Plug-In . SVG Version: 6.00 Build 43363)  -->
<!DOCTYPE svg PUBLIC "-//W3C//DTD SVG 1.1//EN" "http://www.w3.org/Graphics/SVG/1.1/DTD/svg11.dtd">
<svg version="1.1" xmlns="http://www.w3.org/2000/svg" xmlns:xlink="http://www.w3.org/1999/xlink" x="0px" y="0px"
	 width="174.075px" height="103.93px" viewBox="0 0 174.075 103.93" enable-background="new 0 0 174.075 103.93"
	 xml:space="preserve">
<g id="background" display="none">
	<rect x="1.546" display="inline" fill="#8DC63F" width="171.5" height="102.9"/>
</g>
<g id="CataChat">
	<g id="Logo_1_">
		<g id="Logo">
			<g>
				<path fill="#683792" d="M93.423,102.918c1.16-9.031-0.64-16.837-4.822-23.196c-5.403-8.221-11.204-15.926-16.871-23.797
					c-4.322-6.003-8.747-11.88-11.632-19.553c-2.772-7.37-2.972-14.89-0.463-22.496c0.145-0.442,0.306-0.874,0.467-1.304
					c0.08-0.212,0.177-0.412,0.431-0.993c0.243,5.873,2.627,9.641,4.858,13.539C71.484,35.773,79.225,44,86.286,53.229
					c5.197,6.793,9.997,14.007,12.51,23.617C101.354,86.637,99.414,96.216,93.423,102.918z"/>
				<path fill="#683792" d="M96.486,16.374c-5.873-6.267-13.085-6.995-21.095-6.064c-4.207,0.488-8.222,2.479-11.705,5.403
					c-1.604-2.51-1.257-5.225,1.056-7.466c2.795-2.711,5.565-4.139,9.18-4.985c6.365-1.491,11.243-1.265,16.043,1.929
					C93.867,7.784,95.769,11.684,96.486,16.374z"/>
			</g>
			<g>
				<path fill="#683792" d="M105.167,30.058c-0.633-0.875-1.508-1.658-1.86-2.633c-0.585-1.619-1.274-3.392-1.144-5.04
					c0.367-4.668-0.969-8.95-4.731-12.716c1.909,5.934,0.896,11.159-1.64,16.101c-1.936,3.771-4.241,7.351-6.322,11.049
					c-1.453,2.583-3.022,5.125-4.288,7.793l4.603,4.603c1.79,0.479,3.524,0.966,5.291,1.248c1.53,0.244,3.149,0.083,4.713-0.061
					c1.818-0.166,2.659-1.198,2.366-3.098c-0.288-1.863-0.598-3.523,0.582-5.516c0.604-1.02,2.252-3.337,0.388-5.214
					c-0.083-0.084,0.545-1.175,1.038-1.482C106.997,33.331,107.138,32.778,105.167,30.058z"/>
			</g>
		</g>
	</g>
</g>
<g id="harabara_font">
	<path fill="#FFFFFF" stroke="#FFFFFF" stroke-width="1.25" stroke-miterlimit="10" d="M26.532,74.563
		c-0.256,3.063-1.405,5.464-3.447,7.201c-2.095,1.685-4.852,2.526-8.273,2.526c-3.982,0-7.022-1.199-9.115-3.6
		c-2.094-2.298-3.141-5.693-3.141-10.188c0-4.596,1.073-8.043,3.218-10.34c2.194-2.401,5.362-3.601,9.499-3.601
		c3.37,0,6.051,0.842,8.042,2.527c1.889,1.636,2.96,3.933,3.217,6.894h-3.293c-1.226,0-2.095-0.536-2.604-1.608
		c-0.357-0.662-0.792-1.25-1.302-1.762c-1.022-0.766-2.375-1.149-4.06-1.149c-2.35,0-4.163,0.766-5.439,2.297
		c-1.226,1.533-1.839,3.78-1.839,6.741c0,2.86,0.613,5.055,1.839,6.588c1.174,1.583,2.936,2.375,5.285,2.375
		c1.634,0,2.988-0.409,4.06-1.226c0.969-0.766,1.658-1.991,2.068-3.676H26.532z"/>
	<path fill="#FFFFFF" stroke="#FFFFFF" stroke-width="1.25" stroke-miterlimit="10" d="M41.854,82.834
		c-1.072,0.563-2.209,0.907-3.409,1.035c-1.2,0.126-2.259,0.192-3.178,0.192c-1.839,0-3.447-0.498-4.827-1.494
		c-1.379-0.996-2.068-2.643-2.068-4.941c0-2.145,0.625-3.676,1.877-4.596c1.25-0.918,2.846-1.531,4.787-1.838
		c0.255,0,0.561-0.039,0.919-0.115c0.357-0.077,0.767-0.14,1.226-0.191c2.247-0.307,3.371-0.969,3.371-1.991
		c0-0.766-0.397-1.264-1.188-1.494c-0.792-0.229-1.521-0.344-2.183-0.344c-0.716,0-1.354,0.103-1.915,0.306
		c-0.563,0.204-0.971,0.587-1.227,1.149h-5.132c0.204-1.583,0.92-2.885,2.145-3.908c1.379-1.174,3.345-1.761,5.898-1.761
		c2.859,0,5.004,0.486,6.435,1.455c1.479,1.023,2.221,2.451,2.221,4.29v6.97c0,2.043-0.371,3.639-1.111,4.788
		C43.757,81.495,42.875,82.325,41.854,82.834 M40.629,73.414c-0.716,0.357-1.711,0.689-2.987,0.995l-1.762,0.384
		c-0.919,0.256-1.583,0.587-1.992,0.996c-0.358,0.563-0.536,1.125-0.536,1.685c0,0.766,0.229,1.379,0.689,1.838
		c0.46,0.41,1.123,0.613,1.991,0.613c1.43,0,2.554-0.408,3.371-1.225c0.815-0.816,1.226-1.94,1.226-3.37V73.414z"/>
	<path fill="#FFFFFF" stroke="#FFFFFF" stroke-width="1.25" stroke-miterlimit="10" d="M56.563,83.678
		c-1.686,0.102-3.512,0.077-5.477-0.077c-1.966-0.153-2.949-1.403-2.949-3.753v-22.52h2.757c0.663,0,1.25,0.256,1.762,0.767
		c0.509,0.51,0.767,1.123,0.767,1.838v3.447h3.14v1.071c0,0.767-0.256,1.393-0.766,1.877c-0.511,0.486-1.125,0.729-1.838,0.729
		h-0.535v11.336c0,0.869,0.509,1.302,1.53,1.302h1.609V83.678z"/>
	<path fill="#FFFFFF" stroke="#FFFFFF" stroke-width="1.25" stroke-miterlimit="10" d="M72.059,82.834
		c-1.072,0.563-2.209,0.907-3.408,1.035c-1.201,0.126-2.26,0.192-3.179,0.192c-1.838,0-3.447-0.498-4.826-1.494
		c-1.378-0.996-2.068-2.643-2.068-4.941c0-2.145,0.625-3.676,1.876-4.596c1.251-0.918,2.846-1.531,4.788-1.838
		c0.255,0,0.562-0.039,0.92-0.115c0.357-0.077,0.766-0.14,1.226-0.191c2.247-0.307,3.37-0.969,3.37-1.991
		c0-0.766-0.396-1.264-1.188-1.494c-0.792-0.229-1.52-0.344-2.183-0.344c-0.717,0-1.354,0.103-1.916,0.306
		c-0.562,0.204-0.97,0.587-1.226,1.149h-5.132c0.204-1.583,0.919-2.885,2.144-3.908c1.379-1.174,3.344-1.761,5.898-1.761
		c2.86,0,5.004,0.486,6.435,1.455c1.48,1.023,2.221,2.451,2.221,4.29v6.97c0,2.043-0.37,3.639-1.111,4.788
		C73.961,81.495,73.08,82.325,72.059,82.834 M70.833,73.414c-0.716,0.357-1.711,0.689-2.987,0.995l-1.762,0.384
		c-0.918,0.256-1.583,0.587-1.991,0.996c-0.358,0.563-0.537,1.125-0.537,1.685c0,0.766,0.23,1.379,0.689,1.838
		c0.46,0.41,1.123,0.613,1.992,0.613c1.428,0,2.553-0.408,3.37-1.225c0.816-0.816,1.226-1.94,1.226-3.37V73.414z"/>
	<path fill="none" stroke="#FFFFFF" stroke-miterlimit="10" d="M124.934,74.514c-0.256,3.064-1.404,5.465-3.447,7.201
		c-2.095,1.685-4.852,2.527-8.273,2.527c-3.982,0-7.022-1.199-9.115-3.601c-2.095-2.297-3.141-5.693-3.141-10.187
		c0-4.596,1.072-8.043,3.217-10.341c2.195-2.4,5.362-3.601,9.499-3.601c3.37,0,6.051,0.842,8.042,2.527
		c1.89,1.635,2.961,3.934,3.218,6.896h-3.294c-1.226,0-2.094-0.537-2.604-1.609c-0.357-0.663-0.792-1.251-1.302-1.762
		c-1.021-0.766-2.374-1.149-4.059-1.149c-2.35,0-4.163,0.766-5.439,2.298c-1.226,1.532-1.838,3.78-1.838,6.741
		c0,2.86,0.612,5.056,1.838,6.587c1.175,1.583,2.936,2.375,5.285,2.375c1.634,0,2.988-0.409,4.06-1.226
		c0.97-0.765,1.659-1.992,2.068-3.676H124.934z"/>
	<path fill="none" stroke="#FFFFFF" stroke-miterlimit="10" d="M138.875,69c-0.766-1.073-1.813-1.609-3.141-1.609
		c-1.43,0-2.527,0.511-3.293,1.533c-0.766,1.022-1.149,2.426-1.149,4.213v10.494h-5.208v-26.35h2.604
		c0.714,0,1.328,0.256,1.837,0.766c0.511,0.511,0.767,1.124,0.767,1.838v6.051c0.919-1.532,2.221-2.501,3.906-2.911
		c1.686-0.408,3.294-0.306,4.826,0.307c1.43,0.613,2.629,1.583,3.6,2.911c0.97,1.328,1.456,3.167,1.456,5.515v11.873h-5.132v-10.57
		c0-0.766-0.065-1.468-0.191-2.106C139.628,70.314,139.335,69.664,138.875,69"/>
	<path fill="none" stroke="#FFFFFF" stroke-miterlimit="10" d="M159.021,82.787c-1.072,0.562-2.21,0.906-3.408,1.034
		c-1.201,0.126-2.259,0.192-3.18,0.192c-1.838,0-3.446-0.499-4.826-1.495c-1.378-0.996-2.068-2.642-2.068-4.94
		c0-2.146,0.625-3.677,1.877-4.596c1.251-0.92,2.846-1.532,4.788-1.838c0.254,0,0.561-0.039,0.92-0.115
		c0.355-0.077,0.765-0.14,1.224-0.192c2.246-0.307,3.371-0.97,3.371-1.991c0-0.766-0.397-1.264-1.188-1.495
		c-0.792-0.229-1.52-0.343-2.183-0.343c-0.715,0-1.353,0.103-1.915,0.306c-0.562,0.205-0.97,0.587-1.225,1.149h-5.133
		c0.204-1.583,0.919-2.885,2.145-3.907c1.378-1.174,3.344-1.762,5.898-1.762c2.859,0,5.004,0.486,6.435,1.455
		c1.48,1.022,2.221,2.451,2.221,4.29v6.971c0,2.042-0.371,3.638-1.11,4.787C160.924,81.447,160.042,82.277,159.021,82.787
		 M157.795,73.365c-0.716,0.357-1.711,0.689-2.988,0.995l-1.761,0.385c-0.919,0.256-1.583,0.587-1.992,0.995
		c-0.357,0.563-0.536,1.125-0.536,1.686c0,0.765,0.23,1.379,0.69,1.838c0.459,0.41,1.122,0.613,1.991,0.613
		c1.429,0,2.553-0.408,3.37-1.227c0.817-0.814,1.226-1.94,1.226-3.37V73.365z"/>
	<path fill="none" stroke="#FFFFFF" stroke-miterlimit="10" d="M172.579,83.629c-1.686,0.102-3.512,0.077-5.477-0.077
		c-1.966-0.153-2.949-1.403-2.949-3.752V57.279h2.758c0.662,0,1.25,0.256,1.761,0.766c0.51,0.511,0.767,1.124,0.767,1.838v3.447
		h3.141v1.072c0,0.766-0.256,1.392-0.767,1.877c-0.511,0.486-1.123,0.728-1.838,0.728h-0.536v11.336
		c0,0.869,0.509,1.302,1.531,1.302h1.609V83.629z"/>
	<text transform="matrix(1 0 0 1 168.2715 56.3965)" fill="#FFFFFF" font-family="'MyriadPro-Regular'" font-size="2.5895">TM</text>
</g>
</svg>
